<?xml version="1.0" encoding="utf-8"?>
<!-- Generator: Adobe Illustrator 24.1.2, SVG Export Plug-In . SVG Version: 6.00 Build 0)  -->
<svg version="1.1" id="Capa_1" xmlns="http://www.w3.org/2000/svg" xmlns:xlink="http://www.w3.org/1999/xlink" x="0px" y="0px"
	 viewBox="0 0 167.88 156.54" style="enable-background:new 0 0 167.88 156.54;" xml:space="preserve">
<style type="text/css">
	.st0{fill:#FFFFFF;}
	.st1{fill:#FACF57;}
	.st2{fill:#FFE8AE;}
	.st3{fill:#E0860B;}
</style>
<g>
	<g>
		<g>
			<path class="st0" d="M61.61,122.76h35.35c2.36,0,4.33-1.77,4.59-4.12l8.65-79.11H48.37l8.65,79.11
				C57.27,120.98,59.25,122.76,61.61,122.76z"/>
			<path d="M96.96,124.47H61.61c-3.23,0-5.94-2.43-6.29-5.64l-8.86-81.01h65.65l-8.86,81.01C102.9,122.04,100.2,124.47,96.96,124.47
				z M50.28,41.24l8.44,77.22c0.16,1.48,1.4,2.59,2.89,2.59h35.35c1.49,0,2.73-1.11,2.89-2.59l8.44-77.22H50.28z"/>
		</g>
		<g>
			<path class="st1" d="M52.18,42.95l7.36,67.33c0.25,2.33,2.22,4.09,4.56,4.09h30.36c2.34,0,4.31-1.76,4.56-4.09l7.36-67.33H52.18z
				"/>
		</g>
		<path class="st2" d="M74.61,95.46L69.09,45l-9.35,1.02l5.52,50.46c0.28,2.58,2.6,4.45,5.19,4.16
			C73.02,100.37,74.89,98.04,74.61,95.46z"/>
		<path class="st3" d="M94.66,42.95l-7.81,71.42h7.61c2.34,0,4.31-1.76,4.56-4.09l7.36-67.33H94.66z"/>
		<g>
			<path class="st0" d="M110.08,26.83c0.33-1.8,0.29-3.73-0.32-5.73c-1.46-4.78-5.77-8.28-10.75-8.62c-2.81-0.2-5.44,0.57-7.59,2
				c-2.83-4.57-7.89-7.62-13.66-7.62c-8.04,0-14.69,5.91-15.87,13.61c-2.02-1.04-4.34-1.6-6.79-1.5
				c-7.02,0.27-12.83,6.04-13.13,13.07c-0.34,7.84,5.91,14.29,13.67,14.29c1.25,0,2.46-0.17,3.6-0.48c2.35-0.64,4.69,1.02,4.69,3.46
				v11.68c0,3.82,3.1,6.91,6.91,6.91c3.82,0,6.91-3.1,6.91-6.91V46.95c0-2.04,1.66-3.7,3.7-3.7h5.35c2.04,0,3.7,1.66,3.7,3.7v5.52
				c0,3.82,3.1,6.91,6.91,6.91c3.82,0,6.91-3.1,6.91-6.91v-5.52c0-2.04,1.66-3.7,3.7-3.7c4.2,0,7.93-3,8.49-7.16
				C117.13,31.62,114.17,27.72,110.08,26.83z"/>
			<path d="M118.32,34.94c0-0.05-0.01-0.09-0.01-0.14c0-0.24-0.02-0.48-0.04-0.72c-0.01-0.07-0.01-0.14-0.02-0.21
				c-0.38-3.58-2.64-6.67-5.95-8.1c-0.06-0.03-0.12-0.05-0.18-0.08c-0.06-0.02-0.11-0.05-0.17-0.07c0.13-1.69-0.06-3.37-0.56-5.01
				c-1.67-5.49-6.6-9.44-12.27-9.83c-2.52-0.18-4.98,0.32-7.19,1.43c-0.17-0.22-0.34-0.43-0.52-0.65c-0.07-0.08-0.14-0.17-0.21-0.25
				c-0.16-0.18-0.32-0.36-0.48-0.53c-0.13-0.14-0.27-0.28-0.41-0.42c-0.13-0.13-0.25-0.25-0.38-0.37c-0.29-0.27-0.59-0.54-0.89-0.79
				c-0.01-0.01-0.01-0.01-0.02-0.02c-0.33-0.27-0.66-0.52-1-0.76c-0.03-0.02-0.07-0.05-0.1-0.07C86.48,7.32,84.9,6.53,83.22,6
				c-0.01,0-0.02-0.01-0.04-0.01c-0.83-0.26-1.68-0.47-2.55-0.61c-0.08-0.01-0.17-0.02-0.25-0.04c-0.34-0.05-0.67-0.09-1.01-0.12
				c-0.11-0.01-0.22-0.02-0.33-0.03c-0.42-0.03-0.85-0.05-1.27-0.05c-7.97,0-14.97,5.43-17.1,12.94c-0.1-0.03-0.19-0.05-0.29-0.09
				c-0.27-0.09-0.54-0.17-0.81-0.24c-0.19-0.05-0.38-0.1-0.57-0.14c-0.27-0.06-0.54-0.11-0.82-0.16c-0.21-0.03-0.41-0.06-0.62-0.09
				c-0.26-0.03-0.52-0.06-0.79-0.08c-0.23-0.02-0.46-0.03-0.7-0.03c-0.14,0-0.28-0.02-0.42-0.02c-0.1,0-0.19,0.01-0.28,0.01
				c-0.11,0-0.22-0.01-0.33,0c-0.18,0.01-0.35,0.03-0.52,0.05c-0.23,0.02-0.46,0.03-0.69,0.06c-0.26,0.03-0.51,0.07-0.77,0.12
				c-0.25,0.04-0.5,0.08-0.74,0.14c-0.2,0.05-0.4,0.1-0.61,0.16c-0.29,0.08-0.58,0.15-0.87,0.25c-0.12,0.04-0.24,0.09-0.36,0.13
				c-0.36,0.13-0.71,0.26-1.05,0.41c-0.01,0-0.01,0.01-0.02,0.01c-3.42,1.52-6.18,4.25-7.74,7.65c-0.03,0.06-0.06,0.12-0.09,0.18
				c-0.14,0.32-0.26,0.64-0.38,0.97c-0.05,0.15-0.11,0.29-0.16,0.44c-0.09,0.27-0.17,0.55-0.24,0.82c-0.06,0.21-0.12,0.43-0.17,0.65
				c-0.05,0.24-0.1,0.48-0.14,0.73c-0.05,0.26-0.09,0.52-0.12,0.78c-0.03,0.23-0.05,0.46-0.06,0.7c-0.01,0.16-0.04,0.31-0.04,0.47
				c0,0.12,0,0.23,0,0.34c0,0.11-0.02,0.22-0.02,0.34h0.02c0,3.99,1.48,7.75,4.26,10.65c2.93,3.06,6.88,4.75,11.12,4.75
				c1.37,0,2.74-0.18,4.05-0.54c0.64-0.17,1.3-0.05,1.8,0.33c0.27,0.21,0.73,0.67,0.73,1.48v11.68c0,4.76,3.87,8.62,8.62,8.62
				c4.76,0,8.62-3.87,8.62-8.62V46.95c0-1.1,0.89-1.99,1.99-1.99h5.35c1.1,0,1.99,0.89,1.99,1.99v5.52c0,4.76,3.87,8.62,8.62,8.62
				s8.62-3.87,8.62-8.62v-5.52c0-1.1,0.89-1.99,1.99-1.99c5.15,0,9.52-3.71,10.19-8.64C118.29,35.86,118.31,35.4,118.32,34.94
				L118.32,34.94z M114.84,35.86c-0.43,3.24-3.36,5.68-6.79,5.68c-2.98,0-5.41,2.43-5.41,5.41v5.52c0,2.87-2.33,5.2-5.2,5.2
				s-5.2-2.33-5.2-5.2v-5.52c0-2.98-2.43-5.41-5.41-5.41h-5.35c-2.98,0-5.41,2.43-5.41,5.41v14.03c0,2.87-2.33,5.2-5.2,5.2
				c-2.87,0-5.2-2.33-5.2-5.2V49.3c0-1.66-0.75-3.19-2.07-4.2c-0.96-0.73-2.11-1.11-3.29-1.11c-0.49,0-0.99,0.07-1.49,0.2
				c-1.02,0.28-2.08,0.42-3.15,0.42c-3.3,0-6.37-1.31-8.65-3.69c-2.22-2.31-3.38-5.34-3.31-8.54c0-0.22,0.02-0.43,0.03-0.64
				c0.01-0.18,0.03-0.35,0.05-0.53c0.03-0.21,0.06-0.42,0.1-0.63c0.03-0.18,0.06-0.36,0.1-0.54c0.04-0.18,0.09-0.36,0.14-0.54
				c0.06-0.2,0.11-0.41,0.18-0.6c0.04-0.13,0.1-0.26,0.14-0.39c0.09-0.24,0.18-0.48,0.28-0.71c0.03-0.07,0.06-0.13,0.09-0.2
				c1.22-2.6,3.34-4.7,5.96-5.88c0.02-0.01,0.04-0.02,0.06-0.03c0.25-0.11,0.52-0.21,0.78-0.31c0.11-0.04,0.21-0.08,0.31-0.12
				c0.21-0.07,0.43-0.13,0.65-0.19c0.16-0.04,0.33-0.09,0.49-0.13c0.19-0.04,0.38-0.07,0.56-0.11c0.2-0.03,0.4-0.07,0.61-0.09
				c0.18-0.02,0.36-0.03,0.53-0.05c0.25-0.02,0.49-0.03,0.75-0.04c0.08,0,0.16,0,0.24,0c0.33,0,0.66,0.02,0.98,0.05
				c0.06,0.01,0.13,0.02,0.19,0.02c0.26,0.03,0.52,0.07,0.78,0.11c0.12,0.02,0.23,0.04,0.34,0.06c0.25,0.05,0.49,0.11,0.74,0.18
				c0.11,0.03,0.23,0.06,0.34,0.1c0.24,0.07,0.48,0.16,0.72,0.25c0.12,0.05,0.24,0.09,0.36,0.14c0.2,0.08,0.39,0.17,0.58,0.26
				c0.1,0.05,0.21,0.09,0.31,0.15c0.96,0.49,1.86,1.11,2.66,1.86c0.63,0.58,1.58,0.64,2.23,0.09l0.08-0.07
				c0.75-0.63,0.81-1.79,0.1-2.45c-0.73-0.68-1.52-1.29-2.36-1.81c1.51-6.36,7.31-11.03,13.95-11.03c0.35,0,0.7,0.02,1.05,0.04
				c0.1,0.01,0.19,0.02,0.29,0.03c0.26,0.02,0.51,0.05,0.77,0.09c0.1,0.01,0.19,0.03,0.29,0.05c0.27,0.04,0.53,0.1,0.79,0.16
				c0.07,0.02,0.14,0.03,0.21,0.05c1.04,0.25,2.04,0.62,2.98,1.08c0,0,0,0,0,0c0.3,0.15,0.6,0.31,0.89,0.48
				c0.04,0.02,0.08,0.05,0.13,0.08c0.25,0.15,0.49,0.3,0.72,0.47c0.06,0.04,0.12,0.08,0.19,0.13c0.21,0.15,0.41,0.3,0.61,0.46
				c0.08,0.06,0.16,0.12,0.23,0.18c0.17,0.14,0.32,0.28,0.48,0.42c0.53,0.48,1.02,0.99,1.48,1.55c0.01,0.01,0.02,0.02,0.03,0.04
				c0.18,0.23,0.36,0.46,0.53,0.7c0.01,0.01,0.02,0.03,0.03,0.04c0.17,0.24,0.33,0.49,0.49,0.74c0.5,0.81,0.93,1.66,1.27,2.57
				c0.3,0.81,1.14,1.28,1.97,1.07l0.1-0.03c0.94-0.24,1.5-1.24,1.17-2.15c-0.21-0.58-0.46-1.13-0.72-1.68
				c1.6-0.75,3.35-1.08,5.16-0.95c4.26,0.3,7.97,3.28,9.24,7.42c0.33,1.09,0.47,2.21,0.43,3.34c-0.08,0-0.17-0.01-0.25-0.01
				c-1.01,0-2.01,0.15-2.97,0.45c-0.99,0.31-1.43,1.46-0.94,2.37l0.05,0.09c0.37,0.69,1.18,1.02,1.93,0.79
				c0.62-0.19,1.27-0.29,1.92-0.29c0.44,0,0.87,0.05,1.28,0.13l0.12,0.03c0.01,0,0.02,0.01,0.03,0.01c0.2,0.04,0.39,0.1,0.58,0.16
				c0.11,0.04,0.22,0.08,0.33,0.12c0.08,0.03,0.16,0.06,0.24,0.09c1.57,0.67,2.83,1.93,3.5,3.5c0,0.01,0.01,0.01,0.01,0.02
				c0.07,0.17,0.14,0.35,0.2,0.54c0.02,0.05,0.03,0.11,0.05,0.16c0.04,0.14,0.08,0.28,0.11,0.42c0.02,0.08,0.03,0.17,0.05,0.25
				c0.02,0.12,0.04,0.24,0.05,0.36c0.01,0.1,0.02,0.2,0.03,0.3c0.01,0.11,0.01,0.23,0.02,0.34
				C114.9,35.13,114.89,35.49,114.84,35.86z"/>
		</g>
	</g>
	<path d="M86.33,26.73c-3.28-0.54-6.48,0.3-8.99,2.09c-3.87-2.96-9.45-2.53-12.8,1.13c-0.89,0.97-1.56,2.09-1.98,3.31
		c-0.33,0.95,0.17,2.04,1.14,2.3c0.89,0.24,1.79-0.25,2.07-1.1c0.27-0.81,0.71-1.56,1.3-2.2c2.03-2.21,5.31-2.58,7.76-1.03
		c-1.21,1.54-2.06,3.4-2.4,5.47c0,0.01,0,0.01,0,0.02c-0.17,1.02,0.7,1.91,1.73,1.84l0.17-0.01c0.75-0.05,1.37-0.61,1.49-1.35
		c0.33-2.09,1.46-4.18,4.51-6.02c1.31-0.79,2.82-1.24,4.34-1.18c4.81,0.19,8.36,4.14,8.37,8.65c0,0.83,0.56,1.55,1.37,1.68
		l0.13,0.02c1,0.17,1.91-0.61,1.92-1.63C96.49,32.89,92.27,27.71,86.33,26.73z"/>
</g>
<g>
	<path class="st3" d="M39.12,134.71v2.32c-0.47,0.15-0.89,0.23-1.26,0.23c-1.28,0-2.33-0.48-3.12-1.45c-0.8-0.96-1.2-2.23-1.2-3.8
		c0-1.46,0.4-2.66,1.21-3.61c0.81-0.95,1.82-1.42,3.05-1.42c0.48,0,0.92,0.06,1.32,0.19v2.33c-0.42-0.14-0.83-0.21-1.2-0.21
		c-0.58,0-1.05,0.26-1.44,0.79s-0.57,1.2-0.57,2.01c0,0.88,0.19,1.57,0.58,2.08c0.38,0.51,0.89,0.77,1.53,0.77
		C38.34,134.93,38.7,134.86,39.12,134.71z"/>
	<path class="st3" d="M40.32,128.26c0-0.31,0.11-0.58,0.33-0.8s0.48-0.33,0.79-0.33c0.31,0,0.58,0.11,0.8,0.33s0.33,0.49,0.33,0.8
		c0,0.31-0.11,0.57-0.33,0.79c-0.22,0.22-0.49,0.33-0.8,0.33c-0.3,0-0.57-0.11-0.79-0.33C40.44,128.83,40.32,128.57,40.32,128.26z
		 M40.38,130.28h2.13v6.74h-2.13V130.28z"/>
	<path class="st3" d="M47.58,137.05v-0.96c-0.42,0.61-0.91,0.92-1.48,0.92c-0.72,0-1.28-0.3-1.68-0.9c-0.4-0.6-0.6-1.46-0.6-2.56
		c0-1.08,0.2-1.93,0.59-2.54s0.93-0.92,1.6-0.92c0.61,0,1.12,0.31,1.53,0.92h0.03v-0.71h2.13v6.24c0,0.57-0.1,1.11-0.3,1.63
		c-0.2,0.51-0.56,0.92-1.07,1.21s-1.07,0.44-1.68,0.44s-1.18-0.16-1.72-0.49s-0.89-0.87-1.05-1.64h1.9
		c0.22,0.34,0.49,0.51,0.82,0.51c0.28,0,0.51-0.11,0.7-0.33C47.48,137.63,47.58,137.36,47.58,137.05z M47.58,133.51
		c0-1.09-0.27-1.63-0.82-1.63c-0.27,0-0.48,0.13-0.64,0.4s-0.23,0.63-0.23,1.1c0,1.23,0.29,1.85,0.86,1.85
		C47.3,135.22,47.58,134.65,47.58,133.51z"/>
	<path class="st3" d="M54.67,137.02v-0.89h-0.03c-0.26,0.38-0.51,0.66-0.75,0.84c-0.24,0.18-0.53,0.27-0.85,0.27
		c-0.64,0-1.15-0.33-1.53-0.98s-0.57-1.54-0.57-2.67c0-1.08,0.19-1.94,0.58-2.58s0.89-0.96,1.52-0.96c0.34,0,0.62,0.08,0.86,0.25
		c0.23,0.17,0.48,0.44,0.73,0.81h0.03v-0.84h2.13v6.74H54.67z M54.67,133.61c0-1.12-0.27-1.68-0.82-1.68
		c-0.55,0-0.83,0.56-0.83,1.68c0,1.16,0.29,1.74,0.86,1.74C54.41,135.36,54.67,134.77,54.67,133.61z"/>
	<path class="st3" d="M60.45,130.28v1.13h0.03c0.51-0.88,1.04-1.32,1.6-1.32c0.08,0,0.2,0.01,0.34,0.04v2.09
		c-0.26-0.04-0.5-0.07-0.72-0.07c-0.78,0-1.17,0.51-1.17,1.52v3.35h-2.12v-6.74H60.45z"/>
	<path class="st3" d="M65.62,130.28v1.13h0.03c0.51-0.88,1.04-1.32,1.6-1.32c0.08,0,0.2,0.01,0.34,0.04v2.09
		c-0.26-0.04-0.5-0.07-0.72-0.07c-0.78,0-1.17,0.51-1.17,1.52v3.35h-2.12v-6.74H65.62z"/>
	<path class="st3" d="M71.91,134.96h1.79c-0.34,1.51-1.2,2.27-2.56,2.27c-0.85,0-1.53-0.33-2.03-0.97s-0.75-1.54-0.75-2.69
		c0-1.06,0.25-1.92,0.75-2.56c0.5-0.64,1.16-0.96,1.99-0.96c0.5,0,0.98,0.16,1.44,0.46c0.46,0.31,0.79,0.72,1,1.23
		s0.33,1.32,0.35,2.42h-3.55c0.03,1,0.31,1.5,0.83,1.5c0.18,0,0.34-0.07,0.48-0.2S71.88,135.17,71.91,134.96z M70.36,133.01h1.54
		c-0.01-0.47-0.08-0.82-0.2-1.05c-0.12-0.23-0.3-0.34-0.56-0.34c-0.28,0-0.49,0.11-0.61,0.33S70.36,132.52,70.36,133.01z"/>
	<path class="st3" d="M77.17,130.28v1.13h0.03c0.51-0.88,1.04-1.32,1.6-1.32c0.08,0,0.2,0.01,0.34,0.04v2.09
		c-0.26-0.04-0.5-0.07-0.72-0.07c-0.78,0-1.17,0.51-1.17,1.52v3.35h-2.12v-6.74H77.17z"/>
	<path class="st3" d="M80.31,129.32l1.03-2.19h2.31l-2.02,2.19H80.31z M80.35,130.28h2.13v6.74h-2.13V130.28z"/>
	<path class="st3" d="M87.51,137.02v-0.89h-0.03c-0.26,0.38-0.51,0.66-0.75,0.84c-0.24,0.18-0.53,0.27-0.85,0.27
		c-0.64,0-1.15-0.33-1.53-0.98s-0.57-1.54-0.57-2.67c0-1.08,0.19-1.94,0.58-2.58s0.89-0.96,1.52-0.96c0.34,0,0.62,0.08,0.86,0.25
		c0.23,0.17,0.48,0.44,0.73,0.81h0.03v-0.84h2.13v6.74H87.51z M87.51,133.61c0-1.12-0.27-1.68-0.82-1.68
		c-0.55,0-0.83,0.56-0.83,1.68c0,1.16,0.29,1.74,0.86,1.74C87.25,135.36,87.51,134.77,87.51,133.61z"/>
	<path class="st3" d="M95.17,127.24h2.75c0.97,0,1.74,0.28,2.33,0.83s0.88,1.28,0.88,2.18c0,0.95-0.3,1.7-0.89,2.24
		c-0.59,0.54-1.42,0.81-2.46,0.81h-0.38v3.72h-2.22V127.24z M97.39,129.12v2.31c0.5-0.01,0.87-0.1,1.1-0.29
		c0.24-0.18,0.35-0.47,0.35-0.86c0-0.42-0.11-0.72-0.34-0.89C98.27,129.22,97.9,129.13,97.39,129.12z"/>
	<path class="st3" d="M105.73,134.96h1.79c-0.34,1.51-1.2,2.27-2.56,2.27c-0.85,0-1.53-0.33-2.03-0.97s-0.75-1.54-0.75-2.69
		c0-1.06,0.25-1.92,0.75-2.56c0.5-0.64,1.16-0.96,1.99-0.96c0.5,0,0.98,0.16,1.44,0.46c0.46,0.31,0.79,0.72,1,1.23
		s0.33,1.32,0.35,2.42h-3.55c0.03,1,0.31,1.5,0.83,1.5c0.18,0,0.34-0.07,0.48-0.2S105.7,135.17,105.73,134.96z M103.83,129.32
		l1.03-2.19h2.31l-2.02,2.19H103.83z M104.18,133.01h1.54c-0.01-0.47-0.08-0.82-0.2-1.05c-0.12-0.23-0.3-0.34-0.56-0.34
		c-0.28,0-0.49,0.11-0.61,0.33S104.18,132.52,104.18,133.01z"/>
	<path class="st3" d="M110.99,130.28v1.13h0.03c0.51-0.88,1.04-1.32,1.6-1.32c0.08,0,0.2,0.01,0.34,0.04v2.09
		c-0.26-0.04-0.5-0.07-0.72-0.07c-0.78,0-1.17,0.51-1.17,1.52v3.35h-2.12v-6.74H110.99z"/>
	<path class="st3" d="M117.28,134.96h1.79c-0.34,1.51-1.2,2.27-2.56,2.27c-0.85,0-1.53-0.33-2.03-0.97s-0.75-1.54-0.75-2.69
		c0-1.06,0.25-1.92,0.75-2.56c0.5-0.64,1.16-0.96,1.98-0.96c0.5,0,0.98,0.16,1.44,0.46c0.46,0.31,0.79,0.72,1,1.23
		s0.33,1.32,0.35,2.42h-3.55c0.03,1,0.31,1.5,0.83,1.5c0.18,0,0.34-0.07,0.48-0.2S117.25,135.17,117.28,134.96z M115.73,133.01h1.55
		c-0.01-0.47-0.08-0.82-0.2-1.05c-0.12-0.23-0.3-0.34-0.56-0.34c-0.28,0-0.49,0.11-0.61,0.33S115.73,132.52,115.73,133.01z"/>
	<path class="st3" d="M120.33,130.28h4.92l-2.13,4.98h1.99v1.76h-5.05l2.12-4.98h-1.85V130.28z"/>
</g>
<g>
	<path class="st2" d="M79.1,120.09c-0.12,0.1-0.24,0.14-0.36,0.14c-0.24,0-0.45-0.16-0.63-0.46c-0.18-0.31-0.27-0.96-0.27-1.94
		c0-1.07,0.09-1.79,0.27-2.16c0.18-0.37,0.39-0.55,0.64-0.55c0.09,0,0.21,0.03,0.35,0.08v0.61c-0.09-0.06-0.18-0.09-0.26-0.09
		c-0.16,0-0.29,0.13-0.41,0.4c-0.11,0.26-0.17,0.79-0.17,1.57c0,0.46,0.01,0.83,0.04,1.09s0.08,0.47,0.17,0.63s0.2,0.23,0.33,0.23
		c0.08,0,0.18-0.04,0.29-0.12V120.09z"/>
	<path class="st2" d="M79.6,115.2h0.67c0.43,0,0.65,0.47,0.65,1.41c0,0.38-0.04,0.67-0.11,0.88s-0.17,0.35-0.29,0.41
		s-0.28,0.09-0.51,0.09v2.18H79.6V115.2z M80,117.47c0.17,0,0.29-0.06,0.37-0.17s0.11-0.34,0.11-0.69c0-0.35-0.03-0.59-0.1-0.71
		s-0.19-0.19-0.38-0.19V117.47z"/>
</g>
</svg>
